PathFileType	4	(X/Y/Z)	62_1_48_p1_0-328_filt_butterworth.trc
DataRate	CameraRate	NumFrames	NumMarkers	Units	OrigDataRate	OrigDataStartFrame	OrigNumFrames
47.0	47.0	4	27	m	47.0	0	328
Frame#	Time	RHip			RKnee			RAnkle			RBigToe			RSmallToe			RHeel			LHip			LKnee			LAnkle			LBigToe			LSmallToe			LHeel			Neck			Head			Nose			RShoulder			RElbow			RWrist			RThumb			RIndex			RPinky			LShoulder			LElbow			LWrist			LThumb			LIndex			LPinky			
		X1	Y1	Z1	X2	Y2	Z2	X3	Y3	Z3	X4	Y4	Z4	X5	Y5	Z5	X6	Y6	Z6	X7	Y7	Z7	X8	Y8	Z8	X9	Y9	Z9	X10	Y10	Z10	X11	Y11	Z11	X12	Y12	Z12	X13	Y13	Z13	X14	Y14	Z14	X15	Y15	Z15	X16	Y16	Z16	X17	Y17	Z17	X18	Y18	Z18	X19	Y19	Z19	X20	Y20	Z20	X21	Y21	Z21	X22	Y22	Z22	X23	Y23	Z23	X24	Y24	Z24	X25	Y25	Z25	X26	Y26	Z26	X27	Y27	Z27	
0	0.0	0.3059936255060045	0.45767149877647745	0.2444836623123112	0.312893245557318	0.74110251830064	0.5035620108346784	0.32489522494258205	1.0661757104416305	0.7808350494840444	0.276937104710772	0.9144447650328325	0.9334865903698294	0.3499830922272718	0.9427566858392765	0.9144649570731971	0.3192096919643225	1.1297196802128742	0.8072748495878442	0.09770049131150305	0.4923836712298615	0.21729246479168526	0.1397048517891849	0.7858293126382702	0.46275761264424387	0.15752626475029077	1.0385814232801756	0.7770123664009461	0.13097717589789643	0.9262853047097871	0.9224365529430955	0.0852662590079446	0.9748259467907315	0.8864750518768727	0.19606108166455818	1.1346487122357738	0.7930426293625622	0.22381721062024176	0.11120185875725812	-0.2270485170585852	0.22253891027803	-0.04615537270128624	-0.40725919249754466	0.20731031741920436	-0.03053650341540309	-0.272278962269882	0.36341474224255177	0.1405656746682567	-0.11969876543374124	0.37580690777892206	0.3016534691324062	0.11894392312578592	0.26947785100706295	0.35584421426693025	0.33557412612715626	0.1971486562346843	0.4215213361886465	0.3952791696107467	0.1988131600542627	0.425760904717881	0.39957865274635546	0.22905223898262134	0.4283548405792056	0.40805748817548126	0.06409744373926546	0.18395948632003448	-0.1724877111973141	0.0537085356321643	0.3402598372910467	0.060718342995088534	0.1463669509571706	0.3278156297861854	0.3179591147103055	0.2038354150231909	0.3737309365691938	0.3931312041929599	0.21141213758659588	0.3707326006622683	0.41327042284852217	0.19835537415201498	0.4085594181585444	0.3961275237713149
1	0.0212765957446808	0.3053703092639991	0.4593430526924166	0.24683485556858356	0.31041655871350865	0.7361441344270423	0.5048994336683	0.32693150221718376	1.067519200958446	0.772668030064813	0.2825118770445475	0.9220072546797691	0.9312822285310697	0.352879054340464	0.9480790453079878	0.9106253081868891	0.3177961310425888	1.1237185707335886	0.8050413526954314	0.09763543249004045	0.49918179511437155	0.21748194447172625	0.14311928102017565	0.7882901286064472	0.4649594209759335	0.16018657409720838	1.0521532976672094	0.7747535192782121	0.13585827109740442	0.9349658993647396	0.9182207367956423	0.08540042694856104	0.9751901697743877	0.8857938337017497	0.19386937757609746	1.1300690317028539	0.7904526774345401	0.22576101426548215	0.11436939096989758	-0.22896995930355554	0.22258395965370342	-0.04609659531039384	-0.4073426501143905	0.21099587970075756	-0.02393411679593798	-0.27618224776488465	0.3638365123297367	0.14166910671217214	-0.1189465224178933	0.37427982164874307	0.3028167326776091	0.12158266834746882	0.269311274171447	0.3553243988528759	0.3358263360483033	0.19673556565723133	0.4134984230660333	0.3981923291873193	0.19823827884967143	0.41769313296141375	0.4022655512625866	0.2264974083406851	0.4193329901573045	0.4095428407943038	0.06412422404510573	0.18542866054054727	-0.17012874191140487	0.05469439561634007	0.3443640742911167	0.06439555949674246	0.14258955352766645	0.3209607912463636	0.32021831157692116	0.20448267657482738	0.35959933625008844	0.3965913358463846	0.20984526841790951	0.3563870598145637	0.4179188937091257	0.1954895836507689	0.40699354543513	0.3961290995259561
2	0.0425531914893617	0.3055053628012779	0.46018123558742446	0.24800524543526628	0.3108179378255913	0.7369599300271347	0.5047971154211323	0.32793717760913194	1.0685246041621685	0.7687974980152572	0.28393822777265276	0.9249658471017687	0.9300598734050861	0.3545249832543648	0.9513410204788604	0.908676957663109	0.3174082916774996	1.1202807740013352	0.8026203267848235	0.09688784563729742	0.5050056609450235	0.21546921789515805	0.14467738229925228	0.7896936384305351	0.4662053272877839	0.1617434196961652	1.053821501574211	0.7744034041951984	0.13816955241597093	0.9388853714078403	0.9151529896701692	0.08553461734131733	0.9751581521171759	0.8851276337448283	0.19300799447288475	1.1281011993245968	0.7886161458249068	0.22798533404253957	0.11799862661323596	-0.23122113184727336	0.22260931167383316	-0.046017699885463004	-0.40732437670172145	0.2113481918864696	-0.02273499970988873	-0.2774169356341527	0.36415959232230466	0.1421829541588011	-0.11864390315822307	0.3710658669851928	0.3026121482905948	0.12471160767568104	0.26926670833536903	0.3551548626206075	0.33599407774468765	0.1957626686008987	0.408344082339136	0.3996445230078217	0.19710269086313298	0.41281181294729885	0.4037563498966945	0.22492396499898648	0.4130495701267456	0.4111164572875414	0.06413951918334257	0.1861590764888604	-0.1689801766542402	0.05513361904971618	0.34643813113296235	0.06614123075158737	0.14032166231291449	0.3168198513720917	0.3215128209840965	0.20374202975033578	0.3480883831737425	0.40103850166515986	0.20881314327340253	0.3454049665612321	0.4211395706299773	0.19376263020945828	0.4060184843342203	0.39623586505190767
3	0.0638297872340425	0.3068064156729305	0.46029634562473165	0.2481306066186646	0.3129297973163395	0.7405202696521466	0.5039846034237292	0.32800645520965716	1.0688631325421802	0.7686403800144687	0.28271994005816276	0.9244390397570014	0.9297655961975912	0.3549603147143377	0.952518635023921	0.908982586203185	0.31756549904849485	1.1196028928150652	0.8012577993447514	0.09640525367682942	0.5081555873922062	0.21287235777364721	0.14455668796027807	0.790605491176691	0.4672538153579534	0.1622801455306877	1.0462664580543988	0.7756011215099754	0.13819841644184017	0.938863785833011	0.9132823691966021	0.08579330846291355	0.9743511319868944	0.883945905064289	0.19277487598755996	1.1272330554797387	0.7882585637813796	0.22947984543310193	0.12044643818809264	-0.2327696664892879	0.22258303338722205	-0.04594393792620423	-0.4072281634095982	0.20909763418880448	-0.025981362145250445	-0.27544879252116294	0.3641763952246947	0.14182136516805743	-0.11904674744231698	0.36755692316109156	0.3010936994212705	0.1263129517440505	0.26868878095764803	0.354094932445785	0.3361330799907982	0.19503489462673373	0.40327131561231483	0.39987475451434296	0.1963708861793267	0.4087827655870486	0.40486604082328903	0.2236756700695619	0.4062141915822665	0.4141684541634886	0.06414615740506527	0.18609854537468237	-0.16913430510342412	0.055028081614916416	0.34640192658781843	0.06603796462452727	0.13859526633938463	0.31383197754221637	0.3227836858435583	0.20192336500361482	0.3378587135952407	0.4062695998133733	0.20713133238686302	0.33783875835061816	0.42245613833125045	0.1923927382243703	0.405328742545682	0.3965252653114552
